<?xml version="1.0" encoding="UTF-8" standalone="no"?>
<svg
   xmlns:dc="http://purl.org/dc/elements/1.1/"
   xmlns:cc="http://creativecommons.org/ns#"
   xmlns:rdf="http://www.w3.org/1999/02/22-rdf-syntax-ns#"
   xmlns:svg="http://www.w3.org/2000/svg"
   xmlns="http://www.w3.org/2000/svg"
   xmlns:sodipodi="http://sodipodi.sourceforge.net/DTD/sodipodi-0.dtd"
   xmlns:inkscape="http://www.inkscape.org/namespaces/inkscape"
   inkscape:version="1.1-dev (ddb55ca, 2020-02-02)"
   sodipodi:docname="LinkedIn.svg"
   xml:space="preserve"
   style="enable-background:new 0 0 96 96;"
   viewBox="0 0 96 96"
   y="0px"
   x="0px"
   id="Layer_1"
   version="1.1"><metadata
   id="metadata20"><rdf:RDF><cc:Work
       rdf:about=""><dc:format>image/svg+xml</dc:format><dc:type
         rdf:resource="http://purl.org/dc/dcmitype/StillImage" /></cc:Work></rdf:RDF></metadata><defs
   id="defs18" /><sodipodi:namedview
   inkscape:current-layer="Layer_1"
   inkscape:window-maximized="0"
   inkscape:window-y="23"
   inkscape:window-x="0"
   inkscape:cy="54.047399"
   inkscape:cx="14.902567"
   inkscape:zoom="1.6380725"
   showgrid="false"
   id="namedview16"
   inkscape:window-height="480"
   inkscape:window-width="856"
   inkscape:pageshadow="2"
   inkscape:pageopacity="0"
   guidetolerance="10"
   gridtolerance="10"
   objecttolerance="10"
   borderopacity="1"
   bordercolor="#666666"
   pagecolor="#ffffff" />
<style
   id="style10"
   type="text/css">
	.st0{fill:#346DA6;}
	.st1{fill:#FFFFFF;}
</style>
<g
   id="XMLID_1_">
	<circle
   r="27.5"
   cy="48"
   cx="48"
   class="st0"
   id="XMLID_3_" />
	<path
   d="M40.6,60.7V43.9h-5.2v16.8H40.6z M40.6,38c0-1.5-1-2.6-2.7-2.6c-1.6,0-2.7,1.1-2.7,2.6   c0,1.5,1,2.6,2.6,2.6h0C39.5,40.6,40.6,39.4,40.6,38z M49,60.7v-9.6c0-0.5,0-1,0.2-1.4c0.4-1,1.3-2.1,2.9-2.1   c2.1,0,3.3,1.2,3.3,3.5v9.6h5.2v-9.8c0-5.3-2.8-7.7-6.5-7.7c-3.1,0-4.4,1.7-5.2,2.9l0-2.2h-5.2c0.1,1.6,0,16.9,0,16.9H49z"
   class="st1"
   id="XMLID_7_" />
</g>
<g
   id="XMLID_1_-9"
   transform="matrix(1.6118323,0,0,1.5831205,-32.637071,-31.354207)"><circle
     r="27.5"
     cy="48"
     cx="48"
     class="st0"
     id="XMLID_3_-9" /><path
     d="M 40.6,60.7 V 43.9 h -5.2 v 16.8 z m 0,-22.7 c 0,-1.5 -1,-2.6 -2.7,-2.6 -1.6,0 -2.7,1.1 -2.7,2.6 0,1.5 1,2.6 2.6,2.6 v 0 c 1.7,0 2.8,-1.2 2.8,-2.6 z M 49,60.7 v -9.6 c 0,-0.5 0,-1 0.2,-1.4 0.4,-1 1.3,-2.1 2.9,-2.1 2.1,0 3.3,1.2 3.3,3.5 v 9.6 h 5.2 v -9.8 c 0,-5.3 -2.8,-7.7 -6.5,-7.7 -3.1,0 -4.4,1.7 -5.2,2.9 v -2.2 h -5.2 c 0.1,1.6 0,16.9 0,16.9 H 49 Z"
     class="st1"
     id="XMLID_7_-9"
     inkscape:connector-curvature="0" /></g></svg>
